<?xml version="1.0" standalone="no"?><!DOCTYPE svg PUBLIC "-//W3C//DTD SVG 1.1//EN" "http://www.w3.org/Graphics/SVG/1.1/DTD/svg11.dtd"><svg t="1621341813631" class="icon" viewBox="0 0 1024 1024" version="1.1" xmlns="http://www.w3.org/2000/svg" p-id="883" xmlns:xlink="http://www.w3.org/1999/xlink" width="200" height="200"><defs><style type="text/css"></style></defs><path d="M512 85.32363594c235.24363594 0 426.65454563 191.41090875 426.65454563 426.67636406S747.24363594 938.67636406 512 938.67636406 85.34545437 747.26545437 85.34545437 512 276.75636406 85.32363594 512 85.32363594M512 32C246.90909125 32 32 246.90909125 32 512c0 265.06909125 214.90909125 480 480 480s480-214.93090875 480-480C992 246.90909125 777.09090875 32 512 32z" fill="#6f6262" p-id="884"></path><path d="M786.32 314.61090875c0.17454562-2.00727281-0.10909125-3.92727281-0.37090875-5.91272719-0.17454562-1.22181844 0.08727281-2.4-0.24-3.64363593-0.10909125-0.43636406-0.43636406-0.72-0.56727281-1.15636407-0.58909125-1.92-1.63636406-3.6-2.66181844-5.36727281-0.82909125-1.41818156-1.48363594-2.90181844-2.53090875-4.14545437-1.11272719-1.30909125-2.50909125-2.26909125-3.86181844-3.36-1.50545438-1.22181844-2.92363594-2.46545438-4.64727281-3.33818157-0.41454563-0.21818156-0.65454563-0.61090875-1.09090875-0.80727281-1.22181844-0.54545437-2.48727281-0.50181844-3.73090969-0.87272719-1.83272719-0.54545437-3.6-1.11272719-5.52-1.28727281a25.63636406 25.63636406 0 0 0-5.93454562 0.37090875c-1.22181844 0.15272719-2.37818156-0.08727281-3.6 0.2181825l-337.17818156 90.32727281c-0.26181844 0.06545438-0.43636406 0.26181844-0.69818157 0.34909032-1.92 0.56727281-3.57818156 1.65818156-5.32363687 2.64-1.46181844 0.80727281-3.05454563 1.37454563-4.32 2.4-1.11272719 0.91636406-1.87636406 2.18181844-2.83636313 3.27272718-1.46181844 1.63636406-3.01090875 3.18545437-4.03636406 5.10545438-0.13090875 0.21818156-0.34909125 0.34909125-0.45818156 0.56727281L240.40727281 698.76363594c-0.63272719 1.26545438-0.65454563 2.61818156-1.09090875 3.92727281-0.65454563 1.92-1.39636406 3.77454563-1.61454562 5.82545531-0.21818156 2.07272719 0.13090875 4.08 0.39272718 6.10909031 0.15272719 1.33090875-0.10909125 2.61818156 0.26181844 3.97090969 0.06545438 0.28363594 0.26181844 0.45818156 0.34909031 0.7418175 0.32727281 1.11272719 0.96 2.07272719 1.41818157 3.14181844 0.91636406 2.07272719 1.89818156 4.08 3.25090968 5.82545437 0.72 0.93818156 1.57090875 1.68 2.4 2.53090969 1.63636406 1.63636406 3.38181844 3.05454563 5.34545438 4.21090875 0.58909125 0.34909125 0.93818156 0.91636406 1.57090875 1.24363594 0.80727281 0.41454563 1.63636406 0.56727281 2.44363687 0.89454562 0.74181844 0.28363594 1.44 0.56727281 2.20363594 0.78545438 2.61818156 0.78545437 5.28 1.33090875 7.92 1.33090969 2.37818156 0 4.8-0.32727281 7.22181844-0.98181844l0.06545437-0.02181844 0.32727282-0.08727281 354.61090875-94.97454469c0.08727281-0.02181844 0.15272719-0.10909125 0.26181843-0.13090968a27.70909125 27.70909125 0 0 0 8.72727282-4.34181844c0.72-0.50181844 1.33090875-1.11272719 1.98545437-1.68 1.85454563-1.61454563 3.44727281-3.46909125 4.86545438-5.58545438 0.48-0.72 1.00363594-1.39636406 1.39636406-2.1818175 0.28363594-0.52363594 0.67636406-0.91636406 0.93818156-1.44l138.50181844-303.99272812c0.54545437-1.2 0.48-2.44363594 0.85090875-3.66545438 0.56727281-1.87636406 1.13454563-3.64363594 1.30909125-5.60727281zM600.36363594 592.72727281l-281.97818156 75.53454563 122.50909125-241.92 268.01454562-71.80363688L600.36363594 592.72727281z" fill="#6f6262" p-id="885"></path><path d="M512 512m-32.72727281 0a32.72727281 32.72727281 0 1 0 65.45454562 0 32.72727281 32.72727281 0 1 0-65.45454562 0Z" fill="#6f6262" p-id="886"></path></svg>