<?xml version="1.0" standalone="no"?><!DOCTYPE svg PUBLIC "-//W3C//DTD SVG 1.1//EN" "http://www.w3.org/Graphics/SVG/1.1/DTD/svg11.dtd"><svg t="1621341828714" class="icon" viewBox="0 0 1024 1024" version="1.1" xmlns="http://www.w3.org/2000/svg" p-id="1021" xmlns:xlink="http://www.w3.org/1999/xlink" width="200" height="200"><defs><style type="text/css"></style></defs><path d="M952.14301275 978.03377778H641.45382756a25.89076502 25.89076502 0 0 1-25.89076624-25.89076503V667.34459259h-207.12612264v284.79842016a25.89076502 25.89076502 0 0 1-25.89076624 25.89076503H71.85698725a25.89076502 25.89076502 0 0 1-25.89076503-25.89076503V382.54617244a25.94254697 25.94254697 0 0 1 10.95179378-21.15275496l440.14301275-310.68918518a25.91665661 25.91665661 0 0 1 29.8779425 0l440.14301275 310.68918518A25.94254697 25.94254697 0 0 1 978.03377778 382.54617244v569.59684031a25.89076502 25.89076502 0 0 1-25.89076503 25.89076503z m-284.79842016-51.78153127h258.90765392V395.98347969L512 103.54728414 97.74775349 395.98347969V926.25224651h258.90765392V641.45382756a25.89076502 25.89076502 0 0 1 25.89076503-25.89076624h258.90765512a25.89076502 25.89076502 0 0 1 25.89076503 25.89076624z" fill="#6f6262" p-id="1022"></path></svg>