<?xml version="1.0" standalone="no"?><!DOCTYPE svg PUBLIC "-//W3C//DTD SVG 1.1//EN" "http://www.w3.org/Graphics/SVG/1.1/DTD/svg11.dtd"><svg t="1621404449493" class="icon" viewBox="0 0 1024 1024" version="1.1" xmlns="http://www.w3.org/2000/svg" p-id="1150" xmlns:xlink="http://www.w3.org/1999/xlink" width="200" height="200"><defs><style type="text/css"></style></defs><path d="M850.773333 384H554.666667l31.573333-221.013333c6.4-43.946667-20.906667-86.186667-63.573333-98.56-42.24-12.373333-87.04 9.813333-102.826667 50.773333L309.333333 399.36c-6.4 16.64-22.186667 27.306667-39.68 27.306667H85.333333v469.333333h680.106667c39.253333 0 73.386667-26.453333 82.773333-64.426667l85.333334-341.333333A85.589333 85.589333 0 0 0 850.773333 384zM128 469.333333h141.653333c2.56 0 5.12-0.853333 7.68-1.28V853.333333H128v-384z m764.16 10.24l-85.333333 341.333334c-4.693333 19.2-21.76 32.426667-41.386667 32.426666H320v-401.066666c12.8-9.386667 23.04-21.76 29.013333-37.12l110.506667-284.16c8.106667-20.48 30.293333-31.573333 51.2-25.173334 22.186667 6.4 36.693333 28.586667 33.28 51.626667l-38.4 269.226667h345.173333a42.794667 42.794667 0 0 1 41.386667 52.906666z" fill="#ffffff" p-id="1151"></path></svg>