<?xml version="1.0" standalone="no"?><!DOCTYPE svg PUBLIC "-//W3C//DTD SVG 1.1//EN" "http://www.w3.org/Graphics/SVG/1.1/DTD/svg11.dtd"><svg t="1621341795655" class="icon" viewBox="0 0 1024 1024" version="1.1" xmlns="http://www.w3.org/2000/svg" p-id="883" xmlns:xlink="http://www.w3.org/1999/xlink" width="200" height="200"><defs><style type="text/css"></style></defs><path d="M692.32336876 94.45038675c-48.24192924-50.49393391-112.51283782-78.29825215-180.96055344-78.29825215s-132.71332566 27.80564256-180.96320336 78.29825215c-47.84054211 50.06737837-74.18370595 116.52405658-74.18370595 187.12839917 0 70.60036834 26.34316384 137.0610208 74.18370595 187.12442493 13.3570407 13.97965407 27.94606243 26.20804382 43.50344535 36.59641182-52.68235345 17.97232725-112.48104397 48.50554642-164.82029815 100.4208937-86.78036465 86.06634654-130.92629324 208.40190128-131.21508014 363.60348752-0.03179258 18.91287146 15.26859605 34.27552219 34.18411612 34.3139376l0.06491075 0c18.88637614 0 34.21590999-15.29641568 34.24770255-34.18809034 0.32720362-175.55838957 61.31283298-299.52333691 181.25728879-368.44662318 90.94657458-52.25712223 184.19814188-52.86251434 185.6248538-52.86251434l0.15366688 0c3.39257962 0 6.672559-0.50074034 9.77237879-1.42141337 64.00331718-3.01371358 123.6933817-30.43651457 169.15739621-78.0147651 47.84054211-50.06207983 74.18635587-116.51743243 74.18635587-187.12442494C766.51502318 210.97444333 740.16391087 144.51908944 692.32336876 94.45038675zM511.36281532 478.50208237c-102.9153201 0-186.65017859-88.33689806-186.65017859-196.92329775 0-108.58639969 83.73485852-196.92859629 186.65017859-196.92859629 102.92061863 0 186.65017859 88.34352091 186.65017859 196.92859629C698.01166831 390.15988577 614.28343395 478.50208237 511.36281532 478.50208237z" fill="#abd276" p-id="884"></path><path d="M792.24352211 573.70362171c-16.30981778-9.58162081-37.29983284-4.13441737-46.88145236 12.17540041-9.58824367 16.30451923-4.13441737 37.2932087 12.16877756 46.88145238 0.26759141 0.15763981 28.09310514 17.86105134 56.58494619 64.74912785 28.97536016 47.6829023 63.51184961 134.2870803 63.51184959 276.08790928 0 18.91419577 15.3361567 34.24902687 34.25432672 34.24902688 18.91287146 0 34.24902687-15.33483239 34.24902686-34.24902688C946.13232098 667.67450697 798.52529238 577.39823524 792.24352211 573.70362171z" fill="#abd276" p-id="885"></path></svg>