<?xml version="1.0" standalone="no"?><!DOCTYPE svg PUBLIC "-//W3C//DTD SVG 1.1//EN" "http://www.w3.org/Graphics/SVG/1.1/DTD/svg11.dtd"><svg t="1621410662923" class="icon" viewBox="0 0 1024 1024" version="1.1" xmlns="http://www.w3.org/2000/svg" p-id="1101" xmlns:xlink="http://www.w3.org/1999/xlink" width="200" height="200"><defs><style type="text/css"></style></defs><path d="M512 62c-248.540625 0-450 201.459375-450 450s201.459375 450 450 450 450-201.459375 450-450-201.459375-450-450-450zM512 849.5c-186.384375 0-337.5-151.115625-337.5-337.5s151.115625-337.5 337.5-337.5c186.384375 0 337.5 151.115625 337.5 337.5s-151.115625 337.5-337.5 337.5zM343.25 512c0-93.20625 75.54375-168.75 168.75-168.75s168.75 75.54375 168.75 168.75c0 93.20625-75.54375 168.75-168.75 168.75s-168.75-75.54375-168.75-168.75z" fill="#ABD276" p-id="1102"></path></svg>