<?xml version="1.0" standalone="no"?><!DOCTYPE svg PUBLIC "-//W3C//DTD SVG 1.1//EN" "http://www.w3.org/Graphics/SVG/1.1/DTD/svg11.dtd"><svg t="1621410676603" class="icon" viewBox="0 0 1024 1024" version="1.1" xmlns="http://www.w3.org/2000/svg" p-id="1388" xmlns:xlink="http://www.w3.org/1999/xlink" width="200" height="200"><defs><style type="text/css"></style></defs><path d="M328.89581826 827.56169141L378.57406484 624.64104512C382.31654521 609.35411357 377.3012082 592.86491562 365.23045479 582.29299092L211.00890869 446.65621279 407.57229863 434.39618076C424.69403925 433.32826748 439.22097441 422.04939102 444.91598721 406.47489102L514.55261006 216.34198437 584.076442 406.47489102C589.77203925 422.05130263 604.30061006 433.32840898 621.42001279 434.39618076L817.98048037 447.22507519 663.76197442 582.29299092C651.68958448 592.86626387 646.67623379 609.3559751 650.41836348 624.64104512L700.19233789 827.54743291 514.49615615 700.36650898 491.37994795 716.19853643 328.89581826 827.56169141ZM722.88227305 942.25536846C764.43784385 970.71621347 811.45559727 938.35751503 799.45205205 889.32645722L735.443 628.27489356 929.68894795 458.15002666C966.79419453 425.65236523 948.71366211 372.83292529 899.45327305 369.76045977 899.45327305 369.76045977 704.85714248 354.27233516 652.17207763 354.45703378 621.77335068 271.32285869 560.97589589 105.05451026 560.97589589 105.05451026 543.42706484 57.06234248 485.56150684 57.07252373 468.01653242 105.05451026 468.01653242 105.05451026 386.06498721 353.76045752 377.85803925 354.2723457 295.08503926 359.4350498 129.53915615 369.76045977 129.53915615 369.76045977 80.29045479 372.83218789 62.0673251 425.53776289 99.30348037 458.15002666L293.55772695 627.83526641 229.54037627 889.32645722C217.5828831 938.16918652 264.477558 970.76894082 306.11003925 942.25536846L515.88975342 798.57999863 722.88227305 942.25536846Z" fill="#ABD276" p-id="1389"></path></svg>